<svg width="960" height="880" viewBox="0 0 960 880" fill="none" xmlns="http://www.w3.org/2000/svg">
  <rect width="960" height="880" rx="32" fill="#020617"/>
  <rect x="36" y="36" width="888" height="808" rx="28" fill="url(#a)" stroke="#94A3B8" stroke-opacity="0.22"/>
  <rect x="72" y="72" width="816" height="76" rx="22" fill="#0F172A"/>
  <circle cx="112" cy="110" r="10" fill="#00E5FF"/>
  <circle cx="144" cy="110" r="10" fill="#38BDF8" fill-opacity="0.65"/>
  <circle cx="176" cy="110" r="10" fill="#1E293B"/>
  <rect x="104" y="202" width="234" height="180" rx="24" fill="#0F172A"/>
  <rect x="362" y="202" width="496" height="180" rx="24" fill="#0F172A"/>
  <rect x="104" y="406" width="356" height="314" rx="24" fill="#0F172A"/>
  <rect x="484" y="406" width="374" height="148" rx="24" fill="#0F172A"/>
  <rect x="484" y="572" width="374" height="148" rx="24" fill="#0F172A"/>
  <rect x="136" y="238" width="112" height="12" rx="6" fill="#00E5FF"/>
  <rect x="136" y="268" width="146" height="10" rx="5" fill="#334155"/>
  <rect x="136" y="292" width="120" height="10" rx="5" fill="#334155"/>
  <path d="M394 324C442 250 487 236 528 260C579 289 621 342 673 328C719 316 754 251 826 242" stroke="#00E5FF" stroke-width="8" stroke-linecap="round"/>
  <path d="M136 650C187 606 221 590 254 588C307 584 339 620 390 564C413 538 433 515 428 438" stroke="#00E5FF" stroke-width="8" stroke-linecap="round"/>
  <rect x="136" y="446" width="164" height="12" rx="6" fill="#E2E8F0"/>
  <rect x="136" y="476" width="212" height="10" rx="5" fill="#334155"/>
  <rect x="136" y="500" width="174" height="10" rx="5" fill="#334155"/>
  <rect x="516" y="442" width="168" height="12" rx="6" fill="#E2E8F0"/>
  <rect x="516" y="470" width="246" height="10" rx="5" fill="#334155"/>
  <rect x="516" y="608" width="188" height="12" rx="6" fill="#E2E8F0"/>
  <rect x="516" y="636" width="220" height="10" rx="5" fill="#334155"/>
  <defs>
    <linearGradient id="a" x1="480" y1="36" x2="480" y2="844" gradientUnits="userSpaceOnUse">
      <stop stop-color="#0F172A"/>
      <stop offset="1" stop-color="#020617"/>
    </linearGradient>
  </defs>
</svg>
